<?xml version="1.0" encoding="UTF-8"?>
<svg id="Layer_1" data-name="Layer 1" xmlns="http://www.w3.org/2000/svg" version="1.1" viewBox="0 0 234 167">
  <defs>
    <style>
      .cls-1 {
        fill: #14ae5c;
      }

      .cls-1, .cls-2 {
        stroke-width: 0px;
      }

      .cls-2 {
        fill: #fff;
      }
    </style>
  </defs>
  <path class="cls-1" d="M0,55.7c0-11.7,9.5-21.2,21.2-21.2s21.2,9.5,21.2,21.2v21.2c0,1.9-1.5,3.5-3.5,3.5H3.5c-1.9,0-3.5-1.5-3.5-3.5v-21.2Z"/>
  <circle class="cls-1" cx="21.2" cy="15.1" r="15.1"/>
  <path class="cls-1" d="M0,141.4c0-11.7,9.5-21.2,21.2-21.2s21.2,9.5,21.2,21.2v21.2c0,1.9-1.5,3.5-3.5,3.5H3.5c-1.9,0-3.5-1.5-3.5-3.5v-21.2Z"/>
  <circle class="cls-1" cx="21.2" cy="100.9" r="15.1"/>
  <path class="cls-2" d="M47.9,55.7c0-11.7,9.5-21.2,21.2-21.2s21.2,9.5,21.2,21.2v21.2c0,1.9-1.5,3.5-3.5,3.5h-35.5c-1.9,0-3.5-1.5-3.5-3.5v-21.2Z"/>
  <circle class="cls-2" cx="69.1" cy="15.1" r="15.1"/>
  <path class="cls-2" d="M47.9,141.4c0-11.7,9.5-21.2,21.2-21.2s21.2,9.5,21.2,21.2v21.2c0,1.9-1.5,3.5-3.5,3.5h-35.5c-1.9,0-3.5-1.5-3.5-3.5v-21.2Z"/>
  <circle class="cls-2" cx="69.1" cy="100.9" r="15.1"/>
  <path class="cls-2" d="M95.8,55.7c0-11.7,9.5-21.2,21.2-21.2s21.2,9.5,21.2,21.2v21.2c0,1.9-1.5,3.5-3.5,3.5h-35.5c-1.9,0-3.5-1.5-3.5-3.5v-21.2Z"/>
  <circle class="cls-2" cx="117" cy="15.1" r="15.1"/>
  <path class="cls-2" d="M95.8,141.4c0-11.7,9.5-21.2,21.2-21.2s21.2,9.5,21.2,21.2v21.2c0,1.9-1.5,3.5-3.5,3.5h-35.5c-1.9,0-3.5-1.5-3.5-3.5v-21.2Z"/>
  <circle class="cls-2" cx="117" cy="100.9" r="15.1"/>
  <path class="cls-2" d="M143.7,55.7c0-11.7,9.5-21.2,21.2-21.2s21.2,9.5,21.2,21.2v21.2c0,1.9-1.5,3.5-3.5,3.5h-35.5c-1.9,0-3.5-1.5-3.5-3.5v-21.2Z"/>
  <circle class="cls-2" cx="164.9" cy="15.1" r="15.1"/>
  <path class="cls-2" d="M143.7,141.4c0-11.7,9.5-21.2,21.2-21.2s21.2,9.5,21.2,21.2v21.2c0,1.9-1.5,3.5-3.5,3.5h-35.5c-1.9,0-3.5-1.5-3.5-3.5v-21.2Z"/>
  <circle class="cls-2" cx="164.9" cy="100.9" r="15.1"/>
  <path class="cls-2" d="M191.6,55.7c0-11.7,9.5-21.2,21.2-21.2s21.2,9.5,21.2,21.2v21.2c0,1.9-1.5,3.5-3.5,3.5h-35.5c-1.9,0-3.5-1.5-3.5-3.5v-21.2Z"/>
  <circle class="cls-2" cx="212.8" cy="15.1" r="15.1"/>
  <path class="cls-2" d="M191.6,141.4c0-11.7,9.5-21.2,21.2-21.2s21.2,9.5,21.2,21.2v21.2c0,1.9-1.5,3.5-3.5,3.5h-35.5c-1.9,0-3.5-1.5-3.5-3.5v-21.2Z"/>
  <circle class="cls-2" cx="212.8" cy="100.9" r="15.1"/>
</svg>