<?xml version="1.0" encoding="UTF-8"?>
<svg id="Layer_1" data-name="Layer 1" xmlns="http://www.w3.org/2000/svg" version="1.1" viewBox="0 0 235 167">
  <defs>
    <style>
      .cls-1 {
        fill: #ffbf00;
        fill-rule: evenodd;
      }

      .cls-1, .cls-2 {
        stroke-width: 0px;
      }

      .cls-2 {
        fill: #fff;
      }
    </style>
  </defs>
  <path class="cls-2" d="M1,55.7c0-11.7,9.5-21.2,21.2-21.2s21.2,9.5,21.2,21.2v21.2c0,1.9-1.5,3.5-3.5,3.5H4.5c-1.9,0-3.5-1.5-3.5-3.5v-21.2Z"/>
  <circle class="cls-2" cx="22.2" cy="15.1" r="15.1"/>
  <path class="cls-2" d="M1,141.4c0-11.7,9.5-21.2,21.2-21.2s21.2,9.5,21.2,21.2v21.2c0,1.9-1.5,3.5-3.5,3.5H4.5c-1.9,0-3.5-1.5-3.5-3.5v-21.2Z"/>
  <circle class="cls-2" cx="22.2" cy="100.9" r="15.1"/>
  <path class="cls-2" d="M48.9,55.7c0-11.7,9.5-21.2,21.2-21.2s21.2,9.5,21.2,21.2v21.2c0,1.9-1.5,3.5-3.5,3.5h-35.5c-1.9,0-3.5-1.5-3.5-3.5v-21.2Z"/>
  <circle class="cls-2" cx="70.1" cy="15.1" r="15.1"/>
  <path class="cls-2" d="M48.9,141.4c0-11.7,9.5-21.2,21.2-21.2s21.2,9.5,21.2,21.2v21.2c0,1.9-1.5,3.5-3.5,3.5h-35.5c-1.9,0-3.5-1.5-3.5-3.5v-21.2Z"/>
  <circle class="cls-2" cx="70.1" cy="100.9" r="15.1"/>
  <path class="cls-2" d="M96.8,55.7c0-11.7,9.5-21.2,21.2-21.2s21.2,9.5,21.2,21.2v21.2c0,1.9-1.5,3.5-3.5,3.5h-35.5c-1.9,0-3.5-1.5-3.5-3.5v-21.2Z"/>
  <circle class="cls-2" cx="118" cy="15.1" r="15.1"/>
  <path class="cls-2" d="M96.8,141.4c0-11.7,9.5-21.2,21.2-21.2s21.2,9.5,21.2,21.2v21.2c0,1.9-1.5,3.5-3.5,3.5h-35.5c-1.9,0-3.5-1.5-3.5-3.5v-21.2Z"/>
  <circle class="cls-2" cx="118" cy="100.9" r="15.1"/>
  <path class="cls-2" d="M144.7,55.7c0-11.7,9.5-21.2,21.2-21.2s21.2,9.5,21.2,21.2v21.2c0,1.9-1.5,3.5-3.5,3.5h-35.5c-1.9,0-3.5-1.5-3.5-3.5v-21.2Z"/>
  <circle class="cls-2" cx="165.9" cy="15.1" r="15.1"/>
  <path class="cls-2" d="M144.7,141.4c0-11.7,9.5-21.2,21.2-21.2s21.2,9.5,21.2,21.2v21.2c0,1.9-1.5,3.5-3.5,3.5h-35.5c-1.9,0-3.5-1.5-3.5-3.5v-21.2Z"/>
  <circle class="cls-2" cx="165.9" cy="100.9" r="15.1"/>
  <path class="cls-2" d="M192.6,55.7c0-11.7,9.5-21.2,21.2-21.2s21.2,9.5,21.2,21.2v21.2c0,1.9-1.5,3.5-3.5,3.5h-35.5c-1.9,0-3.5-1.5-3.5-3.5v-21.2Z"/>
  <circle class="cls-2" cx="213.8" cy="15.1" r="15.1"/>
  <path class="cls-2" d="M192.6,141.4c0-11.7,9.5-21.2,21.2-21.2s21.2,9.5,21.2,21.2v21.2c0,1.9-1.5,3.5-3.5,3.5h-35.5c-1.9,0-3.5-1.5-3.5-3.5v-21.2Z"/>
  <circle class="cls-2" cx="213.8" cy="100.9" r="15.1"/>
  <path class="cls-1" d="M25,34.8c-1.2-.2-2.5-.3-3.8-.3C9.5,34.5,0,44,0,55.7v21.2c0,1.9,1.5,3.5,3.5,3.5h21.5v-45.5Z"/>
  <path class="cls-1" d="M25,.5C23.8.2,22.5,0,21.2,0,12.9,0,6.2,6.7,6.2,15.1s6.8,15.1,15.1,15.1,2.6-.2,3.8-.5V.5Z"/>
</svg>