<svg width="175" height="183" viewBox="0 0 175 183" fill="none" xmlns="http://www.w3.org/2000/svg">
<circle cx="87.5" cy="87.5" r="85.5" fill="#252525" stroke="white" stroke-width="4"/>
<path d="M95.1947 164.878C91.7306 170.878 83.0703 170.878 79.6062 164.878L16.0592 54.8113C12.5951 48.8113 16.9252 41.3113 23.8534 41.3113L150.947 41.3113C157.876 41.3113 162.206 48.8113 158.742 54.8113L95.1947 164.878Z" stroke="white" stroke-width="4"/>
<path d="M75.1336 65.3389C74.5342 60.9765 77.9242 57.0889 82.3275 57.0889H93.1306C97.6427 57.0889 101.094 61.1101 100.409 65.5699L93.0542 113.459C92.6256 116.25 90.2242 118.311 87.4003 118.311C84.542 118.311 82.1224 116.201 81.7333 113.37L75.1336 65.3389Z" fill="white"/>
<circle cx="87.0222" cy="133.778" r="9.02222" fill="white"/>
</svg>
