<?xml version="1.0" encoding="UTF-8"?>
<svg id="Layer_1" data-name="Layer 1" xmlns="http://www.w3.org/2000/svg" viewBox="0 0 170.23 153">
  <path d="M66.93,10.5c8.08-14,28.29-14,36.37,0l64.09,111c8.08,14-2.02,31.5-18.19,31.5H21.03c-16.17,0-26.27-17.5-18.19-31.5L66.93,10.5Z" style="fill: #252525; stroke-width: 0px;"/>
  <path d="M77.32,17.12c3.46-6,12.12-6,15.59,0l63.55,110.07c3.46,6-.87,13.5-7.79,13.5H21.57c-6.93,0-11.26-7.5-7.79-13.5L77.32,17.12Z" style="fill: none; stroke: #fff; stroke-width: 4px;"/>
  <path d="M72.48,52.34c-.6-4.36,2.79-8.25,7.19-8.25h10.8c4.51,0,7.96,4.02,7.28,8.48l-7.36,47.89c-.43,2.79-2.83,4.85-5.65,4.85s-5.28-2.11-5.67-4.94l-6.6-48.03Z" style="fill: #fff; stroke-width: 0px;"/>
  <circle cx="85.44" cy="120.78" r="9.02" style="fill: #fff; stroke-width: 0px;"/>
</svg>